<svg width="30" height="31" viewBox="0 0 30 31" fill="none" xmlns="http://www.w3.org/2000/svg">
<path d="M24.0385 30.4997C22.7311 30.4997 20.8946 30.027 18.1445 28.4908C14.8002 26.6158 12.2136 24.8847 8.88743 21.5679C5.68052 18.3637 4.11994 16.2891 1.93578 12.3154C-0.531685 7.82871 -0.111063 5.47689 0.359122 4.47175C0.919058 3.27039 1.74557 2.55186 2.81387 1.83868C3.42065 1.4412 4.06278 1.10047 4.73211 0.820811C4.79909 0.792016 4.86138 0.76456 4.91697 0.739783C5.24852 0.590451 5.75085 0.364779 6.38714 0.605853C6.81178 0.76523 7.19088 1.09135 7.7843 1.67729C9.00129 2.87731 10.6644 5.54989 11.2779 6.8624C11.6898 7.74701 11.9624 8.33095 11.9631 8.98586C11.9631 9.75261 11.5773 10.3439 11.1091 10.9821C11.0213 11.102 10.9343 11.2165 10.8499 11.3276C10.3402 11.9973 10.2283 12.1908 10.302 12.5364C10.4514 13.2308 11.5652 15.298 13.3957 17.1241C15.2262 18.9503 17.2342 19.9936 17.9315 20.1422C18.2918 20.2193 18.4894 20.1027 19.1806 19.5751C19.2797 19.4994 19.3815 19.421 19.488 19.3427C20.202 18.8117 20.766 18.436 21.5148 18.436H21.5188C22.1705 18.436 22.7284 18.7186 23.6527 19.1846C24.8583 19.7927 27.6118 21.434 28.8194 22.6521C29.4068 23.2441 29.7343 23.6218 29.8944 24.0456C30.1355 24.6838 29.9085 25.184 29.7604 25.5189C29.7357 25.5745 29.7082 25.6354 29.6794 25.703C29.3975 26.371 29.0547 27.0117 28.6553 27.6169C27.9433 28.6816 27.222 29.506 26.0177 30.0665C25.3993 30.359 24.7226 30.5071 24.0385 30.4997Z" fill="#6A7BA2"/>
</svg>
