<svg width="63" height="61" viewBox="0 0 63 61" fill="none" xmlns="http://www.w3.org/2000/svg">
<rect x="0.302734" y="0.617188" width="62.6973" height="60" rx="30" fill="#D4AF37"/>
<path d="M43.8027 24.6175C44.5984 24.6175 45.3614 24.9336 45.9241 25.4962C46.4867 26.0588 46.8027 26.8219 46.8027 27.6175V33.6175C46.8027 34.4132 46.4867 35.1762 45.9241 35.7388C45.3614 36.3015 44.5984 36.6175 43.8027 36.6175H42.2097C41.8444 39.5176 40.433 42.1846 38.2407 44.1179C36.0483 46.0512 33.2257 47.1178 30.3027 47.1175V44.1175C32.6897 44.1175 34.9789 43.1693 36.6667 41.4815C38.3545 39.7937 39.3027 37.5045 39.3027 35.1175V26.1175C39.3027 23.7306 38.3545 21.4414 36.6667 19.7536C34.9789 18.0657 32.6897 17.1175 30.3027 17.1175C27.9158 17.1175 25.6266 18.0657 23.9388 19.7536C22.2509 21.4414 21.3027 23.7306 21.3027 26.1175V36.6175H16.8027C16.0071 36.6175 15.244 36.3015 14.6814 35.7388C14.1188 35.1762 13.8027 34.4132 13.8027 33.6175V27.6175C13.8027 26.8219 14.1188 26.0588 14.6814 25.4962C15.244 24.9336 16.0071 24.6175 16.8027 24.6175H18.3957C18.7618 21.7179 20.1734 19.0514 22.3656 17.1185C24.5578 15.1856 27.3801 14.1191 30.3027 14.1191C33.2254 14.1191 36.0476 15.1856 38.2399 17.1185C40.4321 19.0514 41.8437 21.7179 42.2097 24.6175H43.8027ZM23.9427 36.295L25.5327 33.751C26.9623 34.6467 28.6158 35.1204 30.3027 35.1175C31.9897 35.1204 33.6432 34.6467 35.0727 33.751L36.6627 36.295C34.7567 37.4895 32.5521 38.1212 30.3027 38.1175C28.0534 38.1212 25.8487 37.4895 23.9427 36.295Z" fill="white"/>
</svg>
