<svg width="26" height="25" viewBox="0 0 26 25" fill="none" xmlns="http://www.w3.org/2000/svg">
<path d="M25.4875 5.68375C25.4759 5.14753 25.4329 4.61245 25.3587 4.08125C25.2691 3.60883 25.1165 3.15058 24.905 2.71875C24.4425 1.80522 23.7008 1.063 22.7875 0.6C22.3584 0.389654 21.9031 0.23748 21.4338 0.1475C20.8985 0.0720414 20.3592 0.0282153 19.8188 0.01625C19.59 0.00750001 19.2937 0.00375003 19.1562 0.00375003L6.84625 0C6.70875 0 6.4125 0.00374999 6.18375 0.0125C5.64753 0.0241255 5.11245 0.0671156 4.58125 0.14125C4.10883 0.230875 3.65058 0.383487 3.21875 0.595C2.30522 1.05747 1.563 1.79924 1.1 2.7125C0.889654 3.14163 0.73748 3.59689 0.6475 4.06625C0.571623 4.60151 0.52738 5.14078 0.515 5.68125C0.5075 5.91 0.5025 6.20625 0.5025 6.34375L0.5 18.6538C0.5 18.7913 0.50375 19.0875 0.5125 19.3162C0.524126 19.8525 0.567116 20.3876 0.64125 20.9188C0.730875 21.3912 0.883487 21.8494 1.095 22.2812C1.55747 23.1948 2.29924 23.937 3.2125 24.4C3.64163 24.6103 4.09689 24.7625 4.56625 24.8525C5.10153 24.928 5.6408 24.9718 6.18125 24.9837C6.41 24.9925 6.70625 24.9963 6.84375 24.9963L19.1538 24.9988C19.2913 24.9988 19.5875 24.995 19.8162 24.9862C20.3525 24.9746 20.8876 24.9316 21.4188 24.8575C21.8912 24.7679 22.3494 24.6153 22.7812 24.4038C23.6952 23.9415 24.4379 23.1997 24.9012 22.2863C25.1116 21.8571 25.2638 21.4019 25.3537 20.9325C25.4296 20.3972 25.4739 19.858 25.4862 19.3175C25.4937 19.0888 25.4988 18.7925 25.4988 18.655L25.5 6.34625C25.5 6.20875 25.4963 5.9125 25.4875 5.68375ZM13.2712 21.1963H13.2675C11.7794 21.1973 10.3149 20.8242 9.00875 20.1113L4.28375 21.35L5.54875 16.7337C4.56932 15.0341 4.17797 13.0589 4.43537 11.1142C4.69278 9.16957 5.58457 7.36416 6.97247 5.97791C8.36036 4.59167 10.1668 3.70203 12.1118 3.44693C14.0568 3.19184 16.0315 3.58554 17.73 4.56699C19.4284 5.54845 20.7556 7.06282 21.5058 8.87533C22.256 10.6878 22.3873 12.6972 21.8792 14.5919C21.3712 16.4866 20.2523 18.1608 18.696 19.3548C17.1397 20.5489 15.2329 21.1962 13.2712 21.1963Z" fill="#6A7BA2"/>
<path d="M13.2749 4.87625C11.9513 4.87586 10.6517 5.2301 9.51134 5.90211C8.37098 6.57412 7.43147 7.53938 6.79053 8.69749C6.14959 9.8556 5.83061 11.1643 5.86678 12.4874C5.90295 13.8106 6.29293 15.0999 6.99618 16.2212L7.17243 16.5013L6.42368 19.2337L9.22743 18.4988L9.49743 18.6588C10.6384 19.3357 11.9408 19.6924 13.2674 19.6913H13.2712C15.2359 19.6916 17.1204 18.9114 18.5099 17.5223C19.8994 16.1333 20.6802 14.2491 20.6806 12.2844C20.6809 10.3196 19.9007 8.4352 18.5117 7.04567C17.1226 5.65615 15.2384 4.87533 13.2737 4.875L13.2749 4.87625ZM17.6299 15.4638C17.4663 15.7345 17.2483 15.9684 16.9897 16.1507C16.7311 16.3329 16.4375 16.4595 16.1274 16.5225C15.6595 16.6029 15.1792 16.5729 14.7249 16.435C14.2938 16.3014 13.8703 16.1445 13.4562 15.965C11.9183 15.1932 10.6076 14.0349 9.65243 12.6038C9.13121 11.9413 8.81491 11.141 8.74243 10.3012C8.73666 9.95468 8.80302 9.61069 8.93729 9.29113C9.07157 8.97157 9.27084 8.68343 9.52243 8.445C9.59708 8.36041 9.68829 8.29203 9.79041 8.24408C9.89254 8.19614 10.0034 8.16965 10.1162 8.16625C10.2637 8.16625 10.4124 8.16625 10.5424 8.17375C10.6799 8.18 10.8624 8.12125 11.0424 8.55625C11.2299 9.00125 11.6749 10.0975 11.7299 10.2087C11.765 10.2672 11.7851 10.3333 11.7884 10.4014C11.7916 10.4694 11.778 10.5373 11.7487 10.5988C11.6929 10.7326 11.6179 10.8577 11.5262 10.97C11.4137 11.1 11.2924 11.26 11.1924 11.36C11.0799 11.4713 10.9649 11.5912 11.0937 11.8138C11.4286 12.386 11.846 12.9057 12.3324 13.3563C12.8613 13.8252 13.4673 14.199 14.1237 14.4613C14.3462 14.5738 14.4762 14.5538 14.6062 14.405C14.7362 14.2563 15.1624 13.755 15.3112 13.5325C15.4599 13.31 15.6074 13.3475 15.8112 13.4213C16.0149 13.495 17.1112 14.0338 17.3337 14.1463C17.5562 14.2587 17.7049 14.3125 17.7599 14.405C17.82 14.7631 17.7749 15.1309 17.6299 15.4638Z" fill="#6A7BA2"/>
</svg>
