<svg width="54" height="64" viewBox="0 0 54 64" fill="none" xmlns="http://www.w3.org/2000/svg">
<path fill-rule="evenodd" clip-rule="evenodd" d="M35.5268 6.29508L38.2235 1.34408C38.2737 1.22091 38.277 1.08341 38.233 0.957896C38.1889 0.832381 38.1005 0.727667 37.9847 0.663797C37.8689 0.599926 37.7338 0.581385 37.6053 0.611722C37.4768 0.642059 37.3639 0.719142 37.2882 0.82822L34.5634 5.82955C32.1781 4.77074 29.5998 4.22647 26.9938 4.23164C24.2845 4.23164 21.7249 4.80097 19.4366 5.82326L16.7055 0.82822C16.6725 0.765706 16.6275 0.710431 16.5732 0.665607C16.5188 0.620783 16.4562 0.587303 16.3889 0.56711C16.3216 0.546918 16.251 0.540415 16.1812 0.547981C16.1114 0.555546 16.0437 0.577029 15.9822 0.611181C15.9203 0.644488 15.8655 0.689882 15.8211 0.744729C15.7766 0.799576 15.7435 0.862781 15.7234 0.930676C15.7034 0.99857 15.697 1.0698 15.7045 1.14023C15.712 1.21066 15.7333 1.27888 15.7671 1.34093L18.467 6.28564C13.167 9.0348 9.58171 14.2658 9.58482 20.2736L44.3965 20.2705C44.3965 14.2626 40.8236 9.04424 35.5268 6.29508ZM19.0718 13.9355C18.8806 13.9353 18.6913 13.8971 18.5148 13.8231C18.3382 13.749 18.1778 13.6407 18.0428 13.5041C17.9077 13.3676 17.8007 13.2055 17.7277 13.0272C17.6547 12.8489 17.6172 12.6579 17.6174 12.465C17.6176 12.2721 17.6555 12.0811 17.7289 11.9029C17.8022 11.7248 17.9096 11.563 18.045 11.4267C18.1803 11.2905 18.3409 11.1824 18.5177 11.1088C18.6944 11.0352 18.8837 10.9974 19.0749 10.9976C19.4615 10.9976 19.8322 11.1525 20.1055 11.4283C20.3789 11.7041 20.5324 12.0781 20.5324 12.4681C20.5324 12.8581 20.3789 13.2321 20.1055 13.5079C19.8322 13.7837 19.4615 13.9386 19.0749 13.9386M44.278 21.6199L44.2842 46.8216C44.2842 48.3345 43.4674 49.6431 42.264 50.3665C41.63 50.7565 40.9021 50.9632 40.1596 50.9642L37.3412 50.9673V59.5671C37.3407 60.145 37.2127 60.7156 36.9663 61.2374C36.7199 61.7591 36.3614 62.2189 35.9168 62.5834C35.4723 62.9479 34.9528 63.2079 34.3962 63.3445C33.8396 63.4811 33.2599 63.4909 32.6991 63.3731C31.8303 63.1927 31.0494 62.7163 30.4874 62.0239C29.9254 61.3315 29.6166 60.4652 29.6126 59.5702V50.9673H24.3905V59.5702C24.3889 60.6016 23.9814 61.5902 23.2577 62.3186C22.5339 63.047 21.5532 63.4558 20.5309 63.4549C19.5094 63.4533 18.53 63.0438 17.8068 62.3159C17.0836 61.588 16.6754 60.6009 16.6712 59.5702V50.9673H13.8622C12.2379 50.9673 10.8475 50.0237 10.1772 48.6522C9.89191 48.0858 9.7414 47.4601 9.73759 46.8247L9.73135 21.6293L44.278 21.6199ZM4.36588 20.8964C6.49835 20.8964 8.23177 22.6359 8.23177 24.778V41.0402C8.23177 41.3065 8.20578 41.5676 8.15382 41.8234C8.02568 42.4469 7.74795 43.0292 7.34497 43.5192C6.94198 44.0093 6.42604 44.3921 5.84233 44.6343C5.25863 44.8764 4.62497 44.9705 3.99688 44.9082C3.36879 44.8458 2.76543 44.6291 2.23965 44.2769C1.70612 43.925 1.26794 43.4445 0.964741 42.8788C0.661541 42.3131 0.502884 41.6801 0.503118 41.037L0.5 24.778C0.5 22.639 2.23029 20.8964 4.36588 20.8964ZM49.6341 20.8933C51.7666 20.8933 53.5 22.6296 53.5 24.7748V41.0339C53.5 43.1822 51.7697 44.9185 49.6372 44.9185C47.5016 44.9185 45.7714 43.1822 45.7714 41.0339V24.7717C45.7714 22.6265 47.4985 20.887 49.631 20.8902M34.9188 11.0039C35.1155 10.9947 35.3119 11.0258 35.4963 11.0954C35.6807 11.165 35.8492 11.2716 35.9916 11.4088C36.134 11.546 36.2473 11.7108 36.3248 11.8934C36.4022 12.0761 36.4421 12.2726 36.4421 12.4713C36.4421 12.6699 36.4022 12.8664 36.3248 13.0491C36.2473 13.2317 36.134 13.3965 35.9916 13.5337C35.8492 13.6709 35.6807 13.7775 35.4963 13.8471C35.3119 13.9167 35.1155 13.9478 34.9188 13.9386C34.7222 13.9478 34.5257 13.9167 34.3413 13.8471C34.1569 13.7775 33.9884 13.6709 33.8461 13.5337C33.7037 13.3965 33.5903 13.2317 33.5129 13.0491C33.4355 12.8664 33.3955 12.6699 33.3955 12.4713C33.3955 12.2726 33.4355 12.0761 33.5129 11.8934C33.5903 11.7108 33.7037 11.546 33.8461 11.4088C33.9884 11.2716 34.1569 11.165 34.3413 11.0954C34.5257 11.0258 34.7222 10.9947 34.9188 11.0039Z" fill="white"/>
</svg>
