<svg width="54" height="64" viewBox="0 0 54 64" fill="none" xmlns="http://www.w3.org/2000/svg">
<path d="M44.6591 60.9298C41.2346 64.2495 37.4956 63.7254 33.8964 62.1529C30.0875 60.5454 26.593 60.4755 22.5745 62.1529C17.5425 64.3194 14.8868 63.6904 11.8816 60.9298C-5.17116 43.3529 -2.65518 16.5857 16.7039 15.6073C21.4213 15.8519 24.7061 18.1932 27.4666 18.4028C31.59 17.5642 35.5387 15.153 39.9417 15.4675C45.2182 15.8869 49.2019 17.9835 51.8227 21.7575C40.9201 28.292 43.506 42.6541 53.5 46.6726C51.5082 51.9142 48.9223 57.1209 44.6242 60.9648L44.6591 60.9298ZM27.1172 15.3976C26.593 7.6051 32.9179 1.17538 40.1863 0.546387C41.1997 9.56197 32.0094 16.2712 27.1172 15.3976Z" fill="white"/>
</svg>
