<svg width="24" height="24" viewBox="0 0 24 24" fill="none" xmlns="http://www.w3.org/2000/svg">
<path d="M10.0053 5.68131C10.0353 4.77631 10.2833 3.44431 11.1503 2.56931C11.9553 1.75631 12.9353 1.36031 13.5453 1.17931C13.599 1.16248 13.656 1.15899 13.7114 1.16911C13.7668 1.17924 13.8189 1.20269 13.8632 1.23743C13.9075 1.27218 13.9426 1.31718 13.9656 1.36855C13.9887 1.41992 13.9988 1.47612 13.9953 1.53231C13.9553 2.39831 13.7273 3.69031 13.1393 4.38231C12.5853 5.03431 11.6953 5.89831 10.3903 6.04431C10.3403 6.04971 10.2897 6.04422 10.242 6.0282C10.1944 6.01218 10.1507 5.98603 10.1142 5.95152C10.0776 5.91702 10.0489 5.875 10.0301 5.82835C10.0113 5.7817 10.0028 5.73154 10.0053 5.68131Z" fill="black"/>
<path d="M14.239 22.3777C14.866 22.6177 15.499 22.8597 16.072 22.8597C17.299 22.8597 20.87 20.0297 20.998 17.0917C20.9989 17.0177 20.9794 16.9449 20.9414 16.8813C20.9034 16.8178 20.8486 16.766 20.783 16.7317C19.875 16.2237 18.391 14.9577 18.34 13.1167C18.28 10.9707 19.357 9.26675 20.172 8.56175C20.356 8.40275 20.419 8.12275 20.255 7.94475C19.513 7.13475 18.021 6.01975 16.659 6.04675C15.669 6.06675 14.776 6.43675 14.009 6.75275C13.422 6.99575 12.909 7.20775 12.483 7.20775C12.08 7.20775 11.596 6.99775 11.04 6.75475C10.292 6.42875 9.41395 6.04675 8.42995 6.04675C6.60595 6.04675 3.00195 7.55975 3.00195 13.3987C3.00195 16.4937 6.19695 22.9417 8.89395 22.8597C9.47595 22.8597 10.098 22.6197 10.716 22.3797C11.324 22.1437 11.927 21.9097 12.483 21.9097C13.02 21.9097 13.626 22.1427 14.239 22.3777Z" fill="black"/>
</svg>
