<svg width="24" height="25" viewBox="0 0 24 25" fill="none" xmlns="http://www.w3.org/2000/svg">
<path d="M23.4443 12.2365C23.4443 11.2532 23.3645 10.5357 23.1918 9.79163H11.9639V14.2296H18.5544C18.4216 15.3325 17.7041 16.9935 16.1095 18.1095L16.0872 18.2581L19.6373 21.0083L19.8832 21.0329C22.1421 18.9467 23.4443 15.8773 23.4443 12.2365Z" fill="#4285F4"/>
<path d="M11.9635 23.9295C15.1923 23.9295 17.9029 22.8665 19.8828 21.0329L16.1092 18.1095C15.0993 18.8138 13.744 19.3054 11.9635 19.3054C8.80107 19.3054 6.11701 17.2193 5.16021 14.3359L5.01997 14.3478L1.32855 17.2047L1.28027 17.3389C3.24681 21.2454 7.28623 23.9295 11.9635 23.9295Z" fill="#34A853"/>
<path d="M5.16039 14.3359C4.90794 13.5918 4.76183 12.7945 4.76183 11.9707C4.76183 11.1468 4.90794 10.3496 5.14711 9.6055L5.14042 9.44703L1.40275 6.54431L1.28046 6.60248C0.469952 8.22358 0.00488281 10.044 0.00488281 11.9707C0.00488281 13.8974 0.469952 15.7177 1.28046 17.3388L5.16039 14.3359Z" fill="#FBBC05"/>
<path d="M11.9635 4.63599C14.209 4.63599 15.7238 5.60598 16.5875 6.41657L19.9625 3.12125C17.8897 1.19456 15.1923 0.0119629 11.9635 0.0119629C7.28623 0.0119629 3.24681 2.69602 1.28027 6.60253L5.14693 9.60555C6.11701 6.72216 8.80107 4.63599 11.9635 4.63599Z" fill="#EB4335"/>
</svg>
