<svg width="55" height="58" viewBox="0 0 55 58" fill="none" xmlns="http://www.w3.org/2000/svg">
<g clip-path="url(#clip0_108_286)">
<path d="M16.0936 35.0244L19.0412 24.5799L19.9555 24.651L17.0079 35.0955L16.0936 35.0244ZM16.9465 33.8417C16.5326 33.8095 16.1333 33.7368 15.7484 33.6235C15.3636 33.5103 15.0147 33.3734 14.7017 33.2128C14.3968 33.0452 14.1457 32.8667 13.9485 32.6772L14.6588 31.5743C14.8705 31.7724 15.1068 31.946 15.3678 32.095C15.6362 32.2446 15.9221 32.3653 16.2253 32.457C16.5361 32.5493 16.8495 32.6078 17.1655 32.6324C17.5492 32.6622 17.8876 32.6431 18.1806 32.5751C18.4735 32.507 18.7017 32.3961 18.8651 32.2423C19.036 32.089 19.1305 31.8958 19.1486 31.6625C19.165 31.4518 19.1067 31.277 18.9737 31.1379C18.8413 30.9914 18.6579 30.8673 18.4236 30.7658C18.1973 30.6574 17.9442 30.5544 17.6641 30.4569C17.3921 30.3525 17.117 30.2402 16.8387 30.1201C16.5609 29.9925 16.3113 29.8444 16.0897 29.6758C15.8688 29.4996 15.6924 29.2853 15.5607 29.0328C15.4364 28.7809 15.3884 28.4743 15.4165 28.1131C15.4569 27.5939 15.6347 27.1573 15.9499 26.8034C16.2732 26.4425 16.7027 26.1769 17.2383 26.0066C17.7739 25.8363 18.3803 25.7775 19.0575 25.8302C19.5692 25.87 20.0501 25.9642 20.5003 26.1128C20.9505 26.2614 21.3327 26.4577 21.6468 26.7017L20.992 27.8203C20.7062 27.6012 20.3831 27.4247 20.0226 27.2907C19.6621 27.1566 19.2824 27.0741 18.8836 27.043C18.4923 27.0126 18.1499 27.0351 17.8564 27.1107C17.5628 27.1863 17.3341 27.3047 17.1701 27.4661C17.0062 27.6274 16.9113 27.8245 16.8857 28.0571C16.8687 28.2754 16.9264 28.4577 17.0588 28.6043C17.1918 28.7434 17.3715 28.8671 17.5977 28.9755C17.8239 29.084 18.0768 29.1907 18.3563 29.2958C18.6364 29.3933 18.9118 29.5017 19.1826 29.6212C19.4609 29.7413 19.7146 29.886 19.9437 30.0552C20.1728 30.2244 20.3497 30.4312 20.4745 30.6756C20.5999 30.9125 20.6492 31.204 20.6222 31.5501C20.5818 32.0693 20.3999 32.5094 20.0766 32.8703C19.7608 33.2318 19.3314 33.4974 18.7883 33.6671C18.2527 33.8373 17.6387 33.8956 16.9465 33.8417Z" fill="#D4AF37"/>
<path d="M41.1684 45.508C29.9099 54.9964 16.7563 51.1615 10.7432 43.8465C3.65465 35.2225 3.79852 23.2328 11.2303 15.1124C15.4473 10.5061 20.767 8.27969 27.0054 8.387C33.1753 8.49314 38.1447 11.2467 42.4538 15.5487C38.0987 8.45422 28.1563 3.96238 17.8601 6.73013C7.84106 9.4224 0.682891 19.0311 0.697042 29.8131C0.711194 40.6046 7.97078 50.106 18.1644 52.8478C27.5007 55.3585 37.4737 51.1827 41.1684 45.508Z" fill="#D4AF37"/>
<path d="M0 21.7519C0.846715 19.8686 1.63211 17.9782 2.66751 16.1975C11.7231 0.629999 33.7236 -0.221433 44.3004 14.6692C45.4255 16.2518 46.6731 17.365 48.4562 17.9629C49.3383 18.2589 50.172 18.7011 51.0435 19.0349C51.5836 19.2412 52.2086 19.7542 52.7122 19.2306C53.1968 18.7271 52.7947 18.0584 52.5447 17.523C50.468 13.0925 47.7014 9.21862 43.8747 6.11596C30.0737 -5.08002 9.31269 -0.332287 1.83376 15.7058C0.944595 17.6115 0.123823 19.5667 0 21.7519Z" fill="#D4AF37"/>
<path d="M4.88574 45.8453C6.89168 49.6295 9.99198 52.3242 13.6182 54.4209C24.0253 60.4352 37.6694 58.7406 46.3147 50.3076C49.0116 47.6778 51.0671 44.5339 52.586 41.0539C53.2723 39.4819 52.8844 39.0149 51.2181 39.2284C50.5718 39.3109 49.9338 39.4984 49.2864 39.5397C47.7156 39.6399 46.7758 40.4595 46.0187 41.8699C42.6401 48.1637 37.5609 52.4751 30.7459 54.2251C21.0193 56.7228 12.5958 54.1108 5.63576 46.6979C5.3775 46.4219 5.13575 46.1295 4.88692 45.8453H4.88574Z" fill="#D4AF37"/>
<path d="M11.5002 35.719C11.7715 33.8699 11.9932 32.0868 12.2998 30.3191C12.8222 27.3049 13.4897 24.339 15.1512 21.7069C15.8317 20.6302 16.6867 20.096 17.9791 20.1314C20.3141 20.1951 22.6526 20.1491 24.9899 20.1479C26.0276 20.1479 26.3885 20.5029 25.8637 21.5725C22.2198 29.0172 22.5877 36.9124 23.2906 45.3454C23.9356 44.2722 23.9191 43.5222 23.9816 42.8064C24.7788 33.5763 27.2057 24.9322 32.7117 17.3872C32.9653 17.0405 33.3556 16.6691 33.1457 16.2068C32.8792 15.6195 32.3002 15.8554 31.8344 15.8778C26.7883 16.1219 21.7422 16.3825 16.6961 16.6172C15.781 16.6596 14.9932 16.8401 14.4779 17.7233C11.433 22.944 9.97308 28.5113 10.9071 34.6058C10.9625 34.969 10.9554 35.3923 11.4991 35.7202L11.5002 35.719Z" fill="#D4AF37"/>
<path d="M27.7212 46.8582C29.7708 45.6353 31.7189 44.4891 33.6517 43.3157C38.1223 40.6022 42.8701 38.5739 47.9575 37.4642C49.8537 37.0503 51.8396 37.1387 53.7359 36.6328C54.138 36.5255 54.6852 36.5962 54.8196 36.0668C54.9423 35.5785 54.5437 35.2531 54.2382 34.9464C51.8714 32.5785 49.5129 30.2022 47.1178 27.8661C46.0105 26.7859 44.856 27.0029 43.4904 28.4463C42.4172 29.5796 43.4762 30.2872 44.0718 30.9546C46.4055 33.5702 46.4303 33.549 43.0623 34.7861C36.8369 37.075 32.0821 41.4018 27.753 46.3146C27.7011 46.3736 27.7377 46.5163 27.7235 46.8582H27.7212Z" fill="#D4AF37"/>
<path d="M25.9936 45.5185C27.1528 43.601 28.2507 41.6411 29.483 39.7731C33.515 33.661 38.4431 28.4911 44.7923 24.8483C45.1709 24.6313 45.5435 24.4002 45.9055 24.1537C46.56 23.7091 46.5494 23.2551 45.8124 22.9674C42.2592 21.5758 38.7226 20.1312 35.1223 18.8788C33.673 18.3753 33.1812 19.8447 32.6918 20.8317C32.1317 21.9614 33.1942 22.2221 33.8841 22.5841C34.8015 23.0676 35.7567 23.4768 36.6801 23.9485C37.508 24.3719 37.6129 24.9827 37.0009 25.6879C36.6412 26.103 36.2485 26.4898 35.8582 26.8755C30.9618 31.7116 27.9064 37.6493 25.911 44.219C25.8014 44.581 25.7554 44.9643 25.6787 45.3369C25.7837 45.3971 25.8886 45.4584 25.9936 45.5185Z" fill="#D4AF37"/>
</g>
<defs>
<clipPath id="clip0_108_286">
<rect width="54.8419" height="58" fill="white"/>
</clipPath>
</defs>
</svg>
