<svg width="192" height="59" viewBox="0 0 192 59" fill="none" xmlns="http://www.w3.org/2000/svg">
<g clip-path="url(#clip0_83_265)">
<path d="M16.0936 35.5245L19.0412 25.08L19.9555 25.1511L17.0079 35.5956L16.0936 35.5245ZM16.9465 34.3418C16.5326 34.3096 16.1333 34.2369 15.7484 34.1236C15.3636 34.0104 15.0147 33.8735 14.7017 33.7129C14.3968 33.5453 14.1457 33.3668 13.9485 33.1773L14.6588 32.0744C14.8705 32.2725 15.1068 32.4461 15.3678 32.5951C15.6362 32.7447 15.9221 32.8654 16.2253 32.9571C16.5361 33.0494 16.8495 33.1079 17.1655 33.1325C17.5492 33.1623 17.8876 33.1432 18.1806 33.0752C18.4735 33.0072 18.7017 32.8962 18.8651 32.7424C19.036 32.5891 19.1305 32.3959 19.1486 32.1626C19.165 31.9519 19.1067 31.7771 18.9737 31.638C18.8413 31.4915 18.6579 31.3674 18.4236 31.2659C18.1973 31.1575 17.9442 31.0545 17.6641 30.957C17.3921 30.8526 17.117 30.7403 16.8387 30.6202C16.5609 30.4926 16.3113 30.3445 16.0897 30.1759C15.8688 29.9997 15.6924 29.7854 15.5607 29.5329C15.4364 29.281 15.3884 28.9744 15.4165 28.6132C15.4569 28.094 15.6347 27.6575 15.9499 27.3035C16.2732 26.9426 16.7027 26.677 17.2383 26.5067C17.7739 26.3364 18.3803 26.2776 19.0575 26.3303C19.5692 26.3701 20.0501 26.4643 20.5003 26.6129C20.9505 26.7615 21.3327 26.9578 21.6468 27.2018L20.992 28.3204C20.7062 28.1013 20.3831 27.9248 20.0226 27.7908C19.6621 27.6567 19.2824 27.5742 18.8836 27.5431C18.4923 27.5127 18.1499 27.5353 17.8564 27.6108C17.5628 27.6864 17.3341 27.8048 17.1701 27.9662C17.0062 28.1276 16.9113 28.3246 16.8857 28.5572C16.8687 28.7755 16.9264 28.9578 17.0588 29.1044C17.1918 29.2435 17.3715 29.3672 17.5977 29.4757C17.8239 29.5841 18.0768 29.6908 18.3563 29.7959C18.6364 29.8934 18.9118 30.0019 19.1826 30.1213C19.4609 30.2414 19.7146 30.3861 19.9437 30.5553C20.1728 30.7245 20.3497 30.9313 20.4745 31.1757C20.5999 31.4126 20.6492 31.7041 20.6222 32.0502C20.5818 32.5694 20.3999 33.0095 20.0766 33.3704C19.7608 33.7319 19.3314 33.9975 18.7883 34.1672C18.2527 34.3375 17.6387 34.3957 16.9465 34.3418Z" fill="#D4AF37"/>
<path d="M41.1681 46.008C29.9097 55.4964 16.7561 51.6614 10.743 44.3464C3.65441 35.7224 3.79828 23.7328 11.23 15.6123C15.4471 11.0061 20.7668 8.77964 27.0051 8.88696C33.1751 8.99309 38.1445 11.7467 42.4535 16.0487C38.0985 8.95417 28.1561 4.46234 17.8599 7.23008C7.84081 9.92235 0.682647 19.531 0.696798 30.3131C0.71095 41.1046 7.97053 50.606 18.1641 53.3478C27.5004 55.8584 37.4735 51.6826 41.1681 46.008Z" fill="#D4AF37"/>
<path d="M0 22.2518C0.846715 20.3685 1.63211 18.4782 2.66751 16.6975C11.7231 1.12992 33.7236 0.27849 44.3004 15.1691C45.4255 16.7517 46.6731 17.8649 48.4562 18.4628C49.3383 18.7588 50.172 19.201 51.0435 19.5348C51.5836 19.7411 52.2086 20.2541 52.7122 19.7305C53.1968 19.227 52.7947 18.5583 52.5447 18.023C50.468 13.5924 47.7014 9.71854 43.8747 6.61588C30.0737 -4.5801 9.31269 0.167637 1.83376 16.2057C0.944595 18.1114 0.123823 20.0666 0 22.2518Z" fill="#D4AF37"/>
<path d="M4.88574 46.3453C6.89168 50.1296 9.99198 52.8242 13.6182 54.9209C24.0253 60.9352 37.6694 59.2406 46.3147 50.8076C49.0116 48.1779 51.0671 45.0339 52.586 41.5539C53.2723 39.982 52.8844 39.515 51.2181 39.7284C50.5718 39.811 49.9338 39.9985 49.2864 40.0397C47.7156 40.14 46.7758 40.9596 46.0187 42.37C42.6401 48.6637 37.5609 52.9751 30.7459 54.7252C21.0193 57.2229 12.5958 54.6108 5.63576 47.1979C5.3775 46.9219 5.13575 46.6295 4.88692 46.3453H4.88574Z" fill="#D4AF37"/>
<path d="M11.5002 36.2189C11.7715 34.3698 11.9932 32.5867 12.2998 30.819C12.8222 27.8048 13.4897 24.8389 15.1512 22.2068C15.8317 21.1301 16.6867 20.5959 17.9791 20.6313C20.3141 20.695 22.6526 20.649 24.9899 20.6478C26.0276 20.6478 26.3885 21.0028 25.8637 22.0724C22.2198 29.5171 22.5877 37.4123 23.2906 45.8453C23.9356 44.7721 23.9191 44.0221 23.9816 43.3063C24.7788 34.0762 27.2057 25.4321 32.7117 17.8872C32.9653 17.5404 33.3556 17.169 33.1457 16.7067C32.8792 16.1194 32.3002 16.3553 31.8344 16.3777C26.7883 16.6218 21.7422 16.8824 16.6961 17.1171C15.781 17.1595 14.9932 17.34 14.4779 18.2232C11.433 23.4439 9.97308 29.0112 10.9071 35.1057C10.9625 35.4689 10.9554 35.8922 11.4991 36.2201L11.5002 36.2189Z" fill="#D4AF37"/>
<path d="M27.7212 47.3583C29.7708 46.1354 31.7189 44.9891 33.6517 43.8157C38.1223 41.1022 42.8701 39.0739 47.9575 37.9642C49.8537 37.5503 51.8396 37.6387 53.7359 37.1328C54.138 37.0255 54.6852 37.0963 54.8196 36.5668C54.9423 36.0786 54.5437 35.7531 54.2382 35.4465C51.8714 33.0785 49.5129 30.7023 47.1178 28.3661C46.0105 27.2859 44.856 27.5029 43.4904 28.9463C42.4172 30.0796 43.4762 30.7872 44.0718 31.4546C46.4055 34.0703 46.4303 34.049 43.0623 35.2861C36.8369 37.575 32.0821 41.9018 27.753 46.8146C27.7011 46.8736 27.7377 47.0163 27.7235 47.3583H27.7212Z" fill="#D4AF37"/>
<path d="M25.9936 46.0186C27.1528 44.1011 28.2507 42.1412 29.483 40.2732C33.515 34.1611 38.4431 28.9912 44.7923 25.3484C45.1709 25.1314 45.5435 24.9003 45.9055 24.6538C46.56 24.2092 46.5494 23.7552 45.8124 23.4675C42.2592 22.0759 38.7226 20.6313 35.1223 19.3789C33.673 18.8754 33.1812 20.3448 32.6918 21.3318C32.1317 22.4615 33.1942 22.7222 33.8841 23.0842C34.8015 23.5677 35.7567 23.9769 36.6801 24.4486C37.508 24.872 37.6129 25.4828 37.0009 26.188C36.6412 26.6031 36.2485 26.9899 35.8582 27.3756C30.9618 32.2117 27.9064 38.1494 25.911 44.7191C25.8014 45.0811 25.7554 45.4644 25.6787 45.837C25.7837 45.8972 25.8886 45.9585 25.9936 46.0186Z" fill="#D4AF37"/>
</g>
<path d="M63.3078 43.5426L69.4495 12.8344H81.8644C85.6956 12.8344 88.6494 13.6825 90.7259 15.3788C92.8316 17.0458 93.8844 19.3855 93.8844 22.3978C93.8844 24.9714 93.2849 27.2234 92.0858 29.1536C90.8867 31.0546 89.1612 32.5169 86.9093 33.5405C84.6866 34.5641 82.0398 35.0759 78.969 35.0759H69.0108L72.7835 31.8296L70.4585 43.5426H63.3078ZM72.608 32.6631L70.1075 29.2852H79.2761C81.6158 29.2852 83.429 28.7588 84.7158 27.7059C86.0319 26.6238 86.6899 25.0592 86.6899 23.012C86.6899 21.5204 86.1927 20.4237 85.1984 19.7218C84.204 18.9907 82.8002 18.6251 80.987 18.6251H72.3448L76.1175 15.1594L72.608 32.6631ZM105.189 43.8935C103.375 43.8935 101.694 43.4841 100.144 42.6652C98.5936 41.8171 97.3506 40.6034 96.4147 39.0241C95.4789 37.4448 95.0109 35.5438 95.0109 33.3211C95.0109 31.3324 95.3326 29.5045 95.9761 27.8375C96.6487 26.1705 97.5846 24.7228 98.7837 23.4945C99.9827 22.2662 101.372 21.3157 102.951 20.643C104.53 19.9411 106.227 19.5902 108.04 19.5902C109.999 19.5902 111.681 19.9558 113.085 20.6869C114.489 21.4181 115.527 22.5587 116.2 24.1087C116.901 25.6295 117.15 27.6036 116.945 30.031C116.799 32.8093 116.229 35.2514 115.234 37.3571C114.24 39.4335 112.895 41.042 111.199 42.1826C109.532 43.3232 107.528 43.8935 105.189 43.8935ZM107.294 38.2344C108.64 38.2344 109.824 37.9127 110.848 37.2693C111.9 36.5967 112.719 35.6901 113.304 34.5495C113.918 33.3796 114.225 32.0197 114.225 30.4697C114.225 28.8611 113.743 27.5889 112.778 26.6531C111.842 25.7172 110.526 25.2493 108.83 25.2493C107.514 25.2493 106.329 25.5856 105.276 26.2583C104.223 26.9017 103.39 27.8083 102.776 28.9781C102.191 30.1187 101.898 31.464 101.898 33.0141C101.898 34.6226 102.366 35.8948 103.302 36.8306C104.267 37.7665 105.598 38.2344 107.294 38.2344ZM111.988 43.5426L112.909 38.8486L114.445 31.8296L115.366 24.8106L116.331 19.9411H123.175L118.481 43.5426H111.988ZM124.817 43.5426L129.511 19.9411H136.003L134.643 26.6531L134.029 24.7228C135.082 22.8219 136.457 21.4912 138.153 20.7308C139.849 19.9704 141.882 19.5902 144.251 19.5902L143.022 25.9073C142.73 25.8781 142.452 25.8634 142.189 25.8634C141.955 25.8342 141.706 25.8196 141.443 25.8196C139.425 25.8196 137.773 26.3167 136.486 27.3111C135.228 28.3055 134.38 29.914 133.941 32.1367L131.66 43.5426H124.817ZM153.959 43.8935C152.263 43.8935 150.815 43.5572 149.616 42.8845C148.417 42.1826 147.554 41.1883 147.028 39.9015C146.531 38.5854 146.458 37.0354 146.809 35.2514L150.889 14.7208H157.732L153.652 35.2075C153.477 36.2019 153.579 36.9915 153.959 37.5764C154.34 38.1613 155.041 38.4538 156.065 38.4538C156.533 38.4538 157.001 38.3807 157.469 38.2344C157.966 38.0882 158.419 37.8835 158.829 37.6203L159.838 42.4897C158.99 43.0161 158.054 43.3817 157.03 43.5864C156.007 43.7912 154.983 43.8935 153.959 43.8935ZM145.054 25.7318L146.107 20.4676H162.47L161.417 25.7318H145.054ZM164.611 52.4041C163.412 52.4041 162.227 52.214 161.058 51.8338C159.858 51.4536 158.908 50.9564 158.206 50.3422L161.365 45.4289C161.862 45.8676 162.417 46.2186 163.032 46.4818C163.675 46.745 164.377 46.8766 165.137 46.8766C166.015 46.8766 166.775 46.6573 167.418 46.2186C168.091 45.7799 168.749 45.0341 169.393 43.9813L171.279 40.9982L171.893 40.2963L184.352 19.9411H191.108L175.403 45.1218C174.233 46.9643 173.107 48.412 172.025 49.4649C170.972 50.547 169.846 51.3074 168.647 51.746C167.477 52.1847 166.132 52.4041 164.611 52.4041ZM169.831 44.4638L164.172 19.9411H171.016L175.315 39.6821L169.831 44.4638Z" fill="#D4AF37"/>
<path d="M65.7949 54.5275C65.1645 54.5275 64.6002 54.3913 64.1021 54.1189C63.6117 53.8465 63.2265 53.4729 62.9463 52.9981C62.6661 52.5233 62.526 51.9785 62.526 51.3636C62.526 50.7488 62.6661 50.204 62.9463 49.7292C63.2265 49.2544 63.6117 48.8847 64.1021 48.6201C64.6002 48.3477 65.1645 48.2115 65.7949 48.2115C66.3553 48.2115 66.8534 48.3243 67.2893 48.55C67.7329 48.768 68.0754 49.0948 68.3167 49.5307L67.4644 50.0794C67.262 49.7759 67.013 49.5541 66.7172 49.414C66.4292 49.2661 66.1179 49.1921 65.7832 49.1921C65.3785 49.1921 65.0166 49.2816 64.6975 49.4607C64.3784 49.6397 64.1254 49.8926 63.9386 50.2195C63.7518 50.5386 63.6584 50.92 63.6584 51.3636C63.6584 51.8073 63.7518 52.1926 63.9386 52.5194C64.1254 52.8463 64.3784 53.0993 64.6975 53.2783C65.0166 53.4573 65.3785 53.5468 65.7832 53.5468C66.1179 53.5468 66.4292 53.4768 66.7172 53.3367C67.013 53.1888 67.262 52.9631 67.4644 52.6595L68.3167 53.1966C68.0754 53.6247 67.7329 53.9554 67.2893 54.1889C66.8534 54.4147 66.3553 54.5275 65.7949 54.5275ZM77.8583 54.5275C77.3291 54.5275 76.8621 54.4302 76.4574 54.2356C76.0604 54.0411 75.7491 53.7453 75.5234 53.3484C75.3054 52.9436 75.1965 52.4377 75.1965 51.8306V48.2698H76.3173V51.7022C76.3173 52.3093 76.4612 52.7646 76.7492 53.0682C77.045 53.3717 77.4575 53.5235 77.9867 53.5235C78.3759 53.5235 78.7145 53.4456 79.0025 53.29C79.2904 53.1265 79.5123 52.893 79.6679 52.5895C79.8236 52.2782 79.9014 51.9046 79.9014 51.4687V48.2698H81.0222V54.4575H79.9598V52.788L80.1349 53.2316C79.9325 53.6441 79.629 53.9632 79.2243 54.1889C78.8195 54.4147 78.3642 54.5275 77.8583 54.5275ZM88.643 54.4575V48.2698H89.7171V49.951L89.612 49.5307C89.7832 49.1026 90.0712 48.7757 90.4759 48.55C90.8806 48.3243 91.3788 48.2115 91.9703 48.2115V49.2972C91.9236 49.2894 91.8769 49.2855 91.8302 49.2855C91.7913 49.2855 91.7524 49.2855 91.7134 49.2855C91.1141 49.2855 90.6394 49.4646 90.2891 49.8226C89.9389 50.1806 89.7638 50.6982 89.7638 51.3753V54.4575H88.643ZM98.8388 54.4575V48.2698H99.9129V49.951L99.8078 49.5307C99.979 49.1026 100.267 48.7757 100.672 48.55C101.076 48.3243 101.575 48.2115 102.166 48.2115V49.2972C102.119 49.2894 102.073 49.2855 102.026 49.2855C101.987 49.2855 101.948 49.2855 101.909 49.2855C101.31 49.2855 100.835 49.4646 100.485 49.8226C100.135 50.1806 99.9596 50.6982 99.9596 51.3753V54.4575H98.8388ZM111.733 54.5275C111.071 54.5275 110.488 54.3913 109.982 54.1189C109.484 53.8465 109.094 53.4729 108.814 52.9981C108.542 52.5233 108.406 51.9785 108.406 51.3636C108.406 50.7488 108.538 50.204 108.802 49.7292C109.075 49.2544 109.445 48.8847 109.912 48.6201C110.386 48.3477 110.919 48.2115 111.511 48.2115C112.11 48.2115 112.64 48.3438 113.099 48.6084C113.558 48.873 113.916 49.2466 114.173 49.7292C114.437 50.204 114.57 50.7604 114.57 51.3987C114.57 51.4454 114.566 51.4999 114.558 51.5621C114.558 51.6244 114.554 51.6828 114.546 51.7372H109.281V50.9317H113.963L113.507 51.2119C113.515 50.8149 113.433 50.4608 113.262 50.1495C113.091 49.8381 112.854 49.5969 112.55 49.4256C112.254 49.2466 111.908 49.1571 111.511 49.1571C111.122 49.1571 110.776 49.2466 110.472 49.4256C110.168 49.5969 109.931 49.842 109.76 50.1611C109.589 50.4725 109.503 50.8305 109.503 51.2352V51.422C109.503 51.8345 109.596 52.2042 109.783 52.5311C109.978 52.8502 110.246 53.0993 110.589 53.2783C110.931 53.4573 111.324 53.5468 111.768 53.5468C112.134 53.5468 112.464 53.4846 112.76 53.36C113.064 53.2355 113.328 53.0487 113.554 52.7996L114.173 53.5235C113.893 53.8504 113.542 54.0994 113.122 54.2707C112.71 54.4419 112.247 54.5275 111.733 54.5275ZM124.917 48.2115C125.423 48.2115 125.867 48.3087 126.248 48.5033C126.637 48.6979 126.941 48.9937 127.159 49.3906C127.377 49.7876 127.486 50.2896 127.486 50.8967V54.4575H126.365V51.0251C126.365 50.4258 126.217 49.9743 125.921 49.6708C125.633 49.3673 125.225 49.2155 124.695 49.2155C124.298 49.2155 123.952 49.2933 123.656 49.449C123.361 49.6046 123.131 49.8343 122.968 50.1378C122.812 50.4413 122.734 50.8188 122.734 51.2702V54.4575H121.613V48.2698H122.687V49.9393L122.512 49.4957C122.715 49.091 123.026 48.7757 123.446 48.55C123.866 48.3243 124.357 48.2115 124.917 48.2115ZM137.744 54.5275C137.113 54.5275 136.549 54.3913 136.051 54.1189C135.561 53.8465 135.175 53.4729 134.895 52.9981C134.615 52.5233 134.475 51.9785 134.475 51.3636C134.475 50.7488 134.615 50.204 134.895 49.7292C135.175 49.2544 135.561 48.8847 136.051 48.6201C136.549 48.3477 137.113 48.2115 137.744 48.2115C138.304 48.2115 138.802 48.3243 139.238 48.55C139.682 48.768 140.024 49.0948 140.266 49.5307L139.413 50.0794C139.211 49.7759 138.962 49.5541 138.666 49.414C138.378 49.2661 138.067 49.1921 137.732 49.1921C137.327 49.1921 136.966 49.2816 136.646 49.4607C136.327 49.6397 136.074 49.8926 135.888 50.2195C135.701 50.5386 135.607 50.92 135.607 51.3636C135.607 51.8073 135.701 52.1926 135.888 52.5194C136.074 52.8463 136.327 53.0993 136.646 53.2783C136.966 53.4573 137.327 53.5468 137.732 53.5468C138.067 53.5468 138.378 53.4768 138.666 53.3367C138.962 53.1888 139.211 52.9631 139.413 52.6595L140.266 53.1966C140.024 53.6247 139.682 53.9554 139.238 54.1889C138.802 54.4147 138.304 54.5275 137.744 54.5275ZM147.393 56.7924C147.097 56.7924 146.809 56.7418 146.529 56.6406C146.248 56.5472 146.007 56.4071 145.805 56.2203L146.283 55.3798C146.439 55.5276 146.61 55.6405 146.797 55.7183C146.984 55.7962 147.182 55.8351 147.393 55.8351C147.665 55.8351 147.891 55.765 148.07 55.6249C148.249 55.4848 148.416 55.2358 148.572 54.8778L148.957 54.0255L149.074 53.8854L151.502 48.2698H152.599L149.599 55.0762C149.42 55.5121 149.218 55.8545 148.992 56.1036C148.774 56.3527 148.533 56.5278 148.268 56.629C148.003 56.7379 147.712 56.7924 147.393 56.7924ZM148.864 54.6559L146.038 48.2698H147.206L149.611 53.7803L148.864 54.6559Z" fill="#D4AF37"/>
<defs>
<clipPath id="clip0_83_265">
<rect width="54.8419" height="58" fill="white" transform="translate(0 0.5)"/>
</clipPath>
</defs>
</svg>
