<svg width="96" height="101" viewBox="0 0 96 101" fill="none" xmlns="http://www.w3.org/2000/svg">
<path d="M27.8982 60.6377L33.0069 42.5356L34.5915 42.6589L29.4827 60.761L27.8982 60.6377ZM29.3763 58.5879C28.6591 58.5321 27.9669 58.4061 27.3 58.2098C26.633 58.0136 26.0282 57.7763 25.4857 57.4979C24.9573 57.2075 24.5221 56.8981 24.1803 56.5697L25.4115 54.6581C25.7784 55.0016 26.1879 55.3024 26.6402 55.5606C27.1055 55.8199 27.6009 56.029 28.1264 56.188C28.665 56.348 29.2082 56.4493 29.7559 56.4919C30.4211 56.5437 31.0075 56.5106 31.5152 56.3927C32.023 56.2748 32.4184 56.0825 32.7016 55.8159C32.9978 55.5503 33.1616 55.2153 33.1931 54.8111C33.2215 54.4459 33.1204 54.1428 32.8899 53.9019C32.6604 53.6478 32.3426 53.4328 31.9364 53.2569C31.5443 53.069 31.1055 52.8905 30.6201 52.7215C30.1487 52.5405 29.6719 52.3459 29.1895 52.1378C28.7081 51.9167 28.2755 51.66 27.8915 51.3677C27.5085 51.0624 27.2028 50.6909 26.9745 50.2533C26.7592 49.8166 26.6759 49.2854 26.7246 48.6594C26.7946 47.7595 27.1028 47.0028 27.6491 46.3893C28.2095 45.7638 28.9538 45.3035 29.8821 45.0084C30.8104 44.7132 31.8614 44.6113 33.0351 44.7027C33.9219 44.7717 34.7555 44.935 35.5358 45.1925C36.316 45.45 36.9784 45.7902 37.5228 46.2131L36.3879 48.1518C35.8926 47.7722 35.3326 47.4662 34.7077 47.2339C34.0829 47.0016 33.4249 46.8585 32.7337 46.8047C32.0556 46.7519 31.4621 46.791 30.9534 46.922C30.4446 47.053 30.0481 47.2583 29.764 47.5379C29.4798 47.8176 29.3155 48.1591 29.2709 48.5623C29.2415 48.9405 29.3416 49.2566 29.5711 49.5107C29.8016 49.7516 30.1129 49.9661 30.505 50.1541C30.8971 50.342 31.3354 50.527 31.8198 50.7091C32.3052 50.878 32.7826 51.0661 33.2519 51.2732C33.7343 51.4813 34.174 51.732 34.571 52.0253C34.9681 52.3186 35.2747 52.677 35.491 53.1006C35.7084 53.5111 35.7937 54.0163 35.747 54.6162C35.677 55.5161 35.3618 56.2788 34.8014 56.9043C34.2541 57.5308 33.5098 57.9912 32.5685 58.2853C31.6402 58.5804 30.5761 58.6813 29.3763 58.5879Z" fill="url(#paint0_linear_622_897)"/>
<path d="M71.3517 78.872C51.8388 95.317 29.0415 88.6703 18.6198 75.9922C6.33407 61.0454 6.58343 40.2653 19.4639 26.1912C26.7728 18.2079 35.9927 14.349 46.8048 14.535C57.4983 14.719 66.1112 19.4914 73.5795 26.9475C66.0315 14.6515 48.7996 6.86643 30.9546 11.6634C13.5898 16.3296 1.18352 32.983 1.20804 51.6701C1.23257 70.3736 13.8146 86.8411 31.4819 91.5931C47.6632 95.9445 64.9482 88.7071 71.3517 78.872Z" fill="url(#paint1_linear_622_897)"/>
<path d="M0 37.6984C1.4675 34.4343 2.82872 31.158 4.62324 28.0718C20.3181 1.09063 58.4486 -0.38505 76.7801 25.4229C78.7299 28.1658 80.8923 30.0952 83.9827 31.1314C85.5115 31.6445 86.9565 32.4109 88.4669 32.9893C89.403 33.347 90.4863 34.2361 91.359 33.3286C92.199 32.4559 91.5021 31.297 91.0688 30.3691C87.4695 22.6903 82.6746 15.9761 76.0422 10.5987C52.1228 -8.8058 16.1405 -0.577178 3.17822 27.2195C1.63714 30.5224 0.214607 33.9111 0 37.6984Z" fill="url(#paint2_linear_622_897)"/>
<path d="M8.46777 79.4566C11.9444 86.0154 17.3177 90.6856 23.6026 94.3196C41.6398 104.743 65.2874 101.806 80.271 87.1906C84.9454 82.6328 88.5078 77.1838 91.1403 71.1524C92.3299 68.4279 91.6574 67.6185 88.7694 67.9884C87.6494 68.1315 86.5437 68.4565 85.4216 68.528C82.6992 68.7018 81.0702 70.1222 79.758 72.5667C73.9023 83.4749 65.0994 90.9473 53.2878 93.9804C36.43 98.3093 21.8306 93.7821 9.76768 80.9343C9.32007 80.4561 8.90107 79.9492 8.46982 79.4566H8.46777Z" fill="url(#paint3_linear_622_897)"/>
<path d="M19.9316 61.9059C20.4017 58.7011 20.786 55.6108 21.3174 52.547C22.2228 47.3229 23.3796 42.1825 26.2595 37.6206C27.4388 35.7545 28.9206 34.8287 31.1607 34.89C35.2075 35.0004 39.2605 34.9206 43.3115 34.9186C45.1101 34.9186 45.7355 35.5338 44.826 37.3876C38.5104 50.2906 39.1481 63.9743 40.3663 78.59C41.4843 76.7301 41.4556 75.4302 41.564 74.1895C42.9456 58.1922 47.1519 43.2106 56.6948 30.1339C57.1342 29.533 57.8107 28.8892 57.4469 28.088C56.985 27.0701 55.9814 27.4789 55.1741 27.5177C46.4284 27.9408 37.6827 28.3925 28.9369 28.7992C27.3509 28.8728 25.9856 29.1855 25.0924 30.7164C19.8151 39.7646 17.2848 49.4137 18.9036 59.9765C18.9996 60.606 18.9874 61.3397 19.9296 61.9079L19.9316 61.9059Z" fill="url(#paint4_linear_622_897)"/>
<path d="M48.0449 81.2123C51.5972 79.0928 54.9736 77.1061 58.3235 75.0725C66.0719 70.3695 74.3005 66.8541 83.1178 64.9308C86.4043 64.2134 89.8462 64.3667 93.1327 63.4898C93.8297 63.3039 94.778 63.4265 95.011 62.5088C95.2236 61.6626 94.5328 61.0985 94.0034 60.5671C89.9014 56.463 85.8136 52.3446 81.6625 48.2957C79.7433 46.4235 77.7424 46.7996 75.3756 49.3013C73.5157 51.2654 75.351 52.4918 76.3832 53.6486C80.428 58.1819 80.4709 58.1451 74.6336 60.2891C63.844 64.2563 55.6032 71.7553 48.1001 80.27C48.0102 80.3722 48.0735 80.6195 48.049 81.2123H48.0449Z" fill="url(#paint5_linear_622_897)"/>
<path d="M45.0506 78.8905C47.0597 75.5671 48.9626 72.1702 51.0984 68.9327C58.0864 58.3393 66.6277 49.379 77.632 43.0655C78.288 42.6894 78.9339 42.2888 79.5614 41.8616C80.6957 41.0911 80.6773 40.3042 79.3999 39.8055C73.2417 37.3937 67.1121 34.89 60.8722 32.7194C58.3603 31.8467 57.508 34.3933 56.6598 36.1041C55.6889 38.0621 57.5305 38.5138 58.7261 39.1412C60.3163 39.9792 61.9718 40.6885 63.5722 41.506C65.007 42.2398 65.1889 43.2985 64.1281 44.5207C63.5047 45.2402 62.8241 45.9105 62.1476 46.5789C53.6614 54.9608 48.3658 65.2517 44.9075 76.6381C44.7174 77.2656 44.6377 77.9298 44.5049 78.5757C44.6868 78.6799 44.8687 78.7862 45.0506 78.8905Z" fill="url(#paint6_linear_622_897)"/>
<defs>
<linearGradient id="paint0_linear_622_897" x1="24.6342" y1="51.0007" x2="37.5944" y2="52.0093" gradientUnits="userSpaceOnUse">
<stop stop-color="#D4AF37"/>
<stop offset="1" stop-color="#2A2A2A"/>
</linearGradient>
<linearGradient id="paint1_linear_622_897" x1="1.2122" y1="51.5571" x2="73.5806" y2="51.5571" gradientUnits="userSpaceOnUse">
<stop stop-color="#D4AF37"/>
<stop offset="1" stop-color="#2A2A2A"/>
</linearGradient>
<linearGradient id="paint2_linear_622_897" x1="0.00531922" y1="18.8489" x2="91.7549" y2="18.8489" gradientUnits="userSpaceOnUse">
<stop stop-color="#D4AF37"/>
<stop offset="1" stop-color="#2A2A2A"/>
</linearGradient>
<linearGradient id="paint3_linear_622_897" x1="8.4726" y1="84.213" x2="91.7005" y2="84.213" gradientUnits="userSpaceOnUse">
<stop stop-color="#D4AF37"/>
<stop offset="1" stop-color="#2A2A2A"/>
</linearGradient>
<linearGradient id="paint4_linear_622_897" x1="18.4212" y1="52.9966" x2="57.5511" y2="52.9966" gradientUnits="userSpaceOnUse">
<stop stop-color="#D4AF37"/>
<stop offset="1" stop-color="#2A2A2A"/>
</linearGradient>
<linearGradient id="paint5_linear_622_897" x1="48.0476" y1="64.1645" x2="95.0512" y2="64.1645" gradientUnits="userSpaceOnUse">
<stop stop-color="#D4AF37"/>
<stop offset="1" stop-color="#2A2A2A"/>
</linearGradient>
<linearGradient id="paint6_linear_622_897" x1="44.507" y1="55.7159" x2="80.3868" y2="55.7159" gradientUnits="userSpaceOnUse">
<stop stop-color="#D4AF37"/>
<stop offset="1" stop-color="#2A2A2A"/>
</linearGradient>
</defs>
</svg>
